# xmcd
#
# Track frame offsets: 
#        150
#        15085
#        28235
#        42830
#        57726
#        77414
#        93176
#        105924
#        119714
#        136962
#
# Disc length: 2063 seconds
#
# Revision: 8
# Processed by: cddbd v1.5.2PL0 Copyright (c) Steve Scherf et al.
# Submitted via: ExactAudioCopy v1.3
#
DISCID=75080d0a
DTITLE=John Anderson - Seminole Wind
DYEAR=1992
DGENRE=Country
TTITLE0=Who Got Our Love
TTITLE1=Straight Tequila Night
TTITLE2=Last Night I Laid Your Memory To Rest
TTITLE3=Let Go Of The Stone
TTITLE4=Look Away
TTITLE5=Steamy Windows
TTITLE6=Hillbilly Hollywood
TTITLE7=Cold Day In Hell
TTITLE8=When It Comes To You 
TTITLE9=Seminole Wind
EXTD=YEAR: 1992
EXTT0=
EXTT1=
EXTT2=
EXTT3=
EXTT4=
EXTT5=
EXTT6=
EXTT7=
EXTT8=
EXTT9=
PLAYORDER=
